<?xml version="1.0" standalone="no"?>
<!DOCTYPE svg PUBLIC "-//W3C//DTD SVG 20010904//EN"
 "http://www.w3.org/TR/2001/REC-SVG-20010904/DTD/svg10.dtd">
<svg version="1.0" xmlns="http://www.w3.org/2000/svg"
 width="3000.000000pt" height="3000.000000pt" viewBox="0 0 3000.000000 3000.000000"
 preserveAspectRatio="xMidYMid meet">

<g transform="translate(0.000000,3000.000000) scale(0.100000,-0.100000)"
fill="#000000" stroke="none">
<path d="M9268 24638 c-19 -18 -38 -40 -42 -48 -3 -8 -14 -27 -24 -42 -9 -15
-78 -127 -152 -248 -74 -122 -142 -232 -150 -245 -8 -13 -69 -112 -135 -220
-66 -108 -128 -208 -137 -223 -9 -15 -23 -37 -30 -49 -14 -24 -293 -478 -318
-518 -8 -14 -69 -113 -135 -220 -66 -108 -128 -208 -137 -223 -10 -15 -22 -36
-28 -47 -32 -59 -121 -195 -129 -195 -9 0 -128 123 -241 249 -47 52 -114 126
-150 165 -36 38 -72 77 -80 86 -8 9 -53 58 -100 110 -47 52 -112 124 -146 160
-34 36 -114 124 -179 195 -65 72 -148 162 -184 200 -36 39 -122 132 -190 208
-147 162 -161 170 -268 144 -38 -8 -90 -22 -118 -31 -63 -18 -260 -75 -300
-85 -104 -28 -148 -45 -175 -71 -26 -24 -30 -35 -29 -77 1 -63 3 -68 78 -153
97 -108 135 -160 125 -169 -5 -5 -31 -16 -59 -25 -78 -25 -220 -70 -335 -107
-58 -18 -157 -49 -220 -70 -63 -20 -169 -54 -235 -74 -66 -21 -172 -55 -235
-75 -63 -20 -169 -54 -235 -75 -66 -20 -173 -55 -237 -76 -168 -56 -158 -60
-158 66 0 120 -14 101 135 180 213 113 384 204 590 315 33 18 94 51 135 72
163 86 179 101 180 170 0 39 -5 54 -29 80 -26 29 -34 32 -82 32 -36 -1 -99
-16 -192 -47 -76 -26 -143 -47 -148 -47 -6 0 -25 -6 -42 -13 -18 -8 -79 -29
-137 -47 -58 -17 -121 -38 -140 -45 -19 -7 -82 -27 -140 -45 -58 -18 -121 -38
-140 -45 -19 -7 -82 -27 -140 -45 -58 -18 -120 -39 -138 -46 -18 -8 -39 -14
-46 -14 -24 0 -102 -39 -122 -61 -18 -20 -19 -42 -24 -335 -4 -261 -7 -316
-20 -327 -8 -7 -42 -21 -75 -31 -142 -43 -195 -84 -195 -150 0 -26 47 -108 87
-151 28 -30 203 -260 203 -266 0 -8 -62 -33 -130 -54 -86 -26 -118 -44 -140
-80 -24 -39 -25 -66 -4 -108 15 -29 99 -145 114 -157 4 -3 44 -54 90 -114 97
-126 99 -118 -33 -161 -110 -35 -145 -54 -168 -91 -23 -38 -24 -65 -3 -107 15
-28 69 -104 84 -117 3 -3 37 -45 75 -95 39 -49 75 -97 82 -105 7 -8 42 -53 79
-100 36 -47 73 -94 82 -105 10 -11 62 -78 117 -149 55 -71 131 -168 168 -215
37 -47 108 -138 157 -201 143 -183 190 -243 220 -280 15 -19 50 -64 78 -99
l49 -63 -12 -52 c-7 -29 -17 -68 -23 -87 -6 -18 -19 -61 -28 -94 -9 -33 -21
-73 -26 -90 -5 -16 -16 -52 -23 -80 -7 -27 -20 -75 -29 -105 -9 -30 -23 -77
-30 -105 -8 -27 -21 -75 -31 -105 -9 -30 -20 -71 -25 -90 -5 -19 -18 -66 -30
-105 -12 -38 -25 -86 -30 -105 -5 -19 -18 -66 -30 -105 -12 -38 -25 -86 -30
-105 -5 -19 -16 -57 -24 -85 -8 -27 -22 -77 -31 -110 -10 -33 -23 -80 -30
-105 -7 -25 -21 -72 -30 -105 -10 -33 -24 -82 -32 -110 -8 -27 -21 -72 -29
-100 -7 -27 -21 -75 -30 -105 -9 -30 -22 -77 -30 -105 -7 -27 -21 -75 -30
-105 -9 -30 -22 -77 -29 -105 -8 -27 -20 -72 -29 -100 -8 -27 -28 -98 -45
-157 -76 -265 -93 -324 -122 -425 -16 -60 -37 -130 -45 -158 -8 -27 -21 -72
-28 -100 -8 -27 -21 -75 -30 -105 -9 -30 -23 -77 -30 -105 -8 -27 -21 -75 -30
-105 -9 -30 -23 -79 -30 -107 -7 -29 -19 -59 -25 -67 -8 -10 -45 -15 -124 -19
-128 -6 -277 -23 -321 -36 -43 -13 -113 -30 -166 -42 -24 -5 -49 -14 -54 -19
-6 -6 -17 -10 -26 -10 -8 0 -28 -7 -44 -15 -15 -8 -34 -15 -42 -15 -20 0 -267
-128 -354 -184 -185 -119 -438 -371 -556 -556 -55 -86 -184 -335 -184 -356 0
-6 -7 -25 -15 -40 -8 -16 -15 -36 -15 -44 0 -9 -4 -20 -9 -25 -5 -6 -14 -32
-21 -60 -6 -27 -18 -77 -27 -110 -8 -33 -21 -109 -29 -170 -8 -60 -19 -114
-24 -119 -14 -14 -13 -3133 0 -3138 5 -1 14 -46 20 -98 28 -254 132 -549 271
-765 10 -16 22 -37 26 -45 20 -43 168 -225 252 -309 101 -101 177 -171 185
-171 3 0 32 -19 63 -43 64 -48 163 -111 227 -143 95 -50 172 -84 187 -84 8 0
24 -7 35 -15 10 -8 27 -15 37 -15 11 0 31 -6 45 -14 15 -7 47 -19 72 -25 61
-17 94 -23 300 -62 36 -7 148 -13 250 -14 l185 -1 6 -339 c4 -205 11 -354 18
-375 6 -19 11 -53 11 -74 0 -40 17 -120 45 -207 8 -26 15 -54 15 -63 0 -8 6
-30 14 -48 8 -18 22 -53 32 -78 32 -82 99 -226 128 -275 78 -132 207 -297 317
-407 102 -100 289 -248 349 -275 8 -4 17 -10 20 -13 6 -8 26 -19 163 -87 58
-29 112 -53 120 -53 9 0 19 -4 22 -10 3 -5 13 -10 22 -10 8 0 29 -7 46 -15 18
-8 50 -19 72 -24 22 -6 67 -17 100 -26 136 -36 257 -49 465 -49 237 0 307 9
551 72 62 16 179 62 284 112 130 62 219 116 340 207 88 67 173 141 224 197 20
22 43 47 51 55 8 9 33 39 55 66 22 28 43 52 46 55 7 6 120 177 135 205 50 88
114 232 159 355 31 86 67 245 87 385 20 136 19 3256 -1 3370 -66 392 -215 711
-465 1000 -60 69 -181 187 -217 213 -45 32 -43 49 13 120 29 37 55 69 58 72 3
3 24 28 45 55 22 28 42 52 45 55 3 3 43 52 90 110 46 58 87 107 90 110 3 3 29
35 59 73 54 69 78 80 119 58 45 -24 222 -45 382 -44 190 0 326 20 490 73 78
26 240 97 260 115 9 8 20 15 23 15 4 0 38 21 76 48 88 60 190 157 237 224 20
29 42 60 49 68 19 22 58 98 77 150 77 206 62 436 -39 628 -23 43 -59 96 -80
120 -7 7 -13 17 -13 22 0 13 -140 149 -195 189 -64 47 -202 131 -216 131 -6 0
-23 6 -37 14 -55 30 -182 76 -207 76 -14 0 -34 4 -44 10 -10 5 -67 16 -127 25
-176 26 -175 25 -189 65 -7 19 -21 62 -30 95 -9 33 -39 132 -66 220 -66 213
-74 240 -93 310 -20 70 -45 159 -57 195 -8 26 -38 133 -65 230 -9 30 -19 66
-24 80 -5 14 -15 50 -24 80 -31 111 -58 206 -66 230 -4 14 -18 61 -30 105 -12
44 -25 91 -30 105 -5 14 -15 50 -24 80 -9 30 -28 96 -42 145 -14 50 -29 104
-33 120 -5 17 -13 46 -19 65 -6 19 -19 62 -28 95 -9 33 -21 78 -28 100 -13 40
-31 104 -62 213 -9 31 -22 75 -29 97 -7 22 -20 69 -30 105 -10 36 -23 83 -30
105 -7 22 -21 69 -30 105 -10 36 -23 83 -30 105 -12 39 -30 100 -63 215 -8 30
-21 73 -28 95 -7 22 -20 67 -29 100 -18 68 -44 157 -56 195 -4 14 -17 59 -29
100 -11 41 -27 95 -35 120 -20 59 -19 79 3 87 51 17 199 75 214 83 10 6 23 10
29 10 6 0 25 6 42 14 32 13 81 33 157 61 22 8 59 22 83 31 23 9 58 22 77 29
19 7 71 27 115 45 44 18 96 38 115 45 89 33 198 75 237 91 17 8 38 14 46 14 9
0 18 4 22 9 3 5 18 12 34 16 15 3 42 20 60 37 27 26 31 37 31 82 -1 56 -1 56
-86 153 -32 36 -64 73 -71 82 -9 12 -12 119 -13 426 0 226 4 415 8 422 4 6 32
21 62 33 75 30 100 59 100 119 0 52 8 72 119 314 17 37 31 69 31 71 0 5 35 83
91 204 16 34 29 64 29 66 0 4 14 36 87 196 14 30 31 69 38 85 7 17 27 61 44
98 17 38 31 70 31 72 0 2 16 38 36 82 20 43 42 92 49 108 25 58 67 151 96 212
16 35 29 65 29 68 0 5 38 90 91 202 16 35 29 65 29 68 0 3 14 35 31 72 17 38
44 96 60 131 16 34 29 64 29 67 0 3 14 34 30 70 17 36 44 94 60 130 17 36 30
67 30 69 0 4 18 45 85 191 12 28 32 73 44 100 26 58 30 68 69 155 16 36 39 88
52 115 12 28 28 64 35 80 112 249 116 274 61 330 -28 30 -40 35 -78 35 -38 0
-52 -6 -80 -32z m-2968 -5418 c10 -30 25 -84 35 -120 10 -36 24 -83 31 -105 7
-22 15 -53 16 -70 l3 -30 -225 0 -225 0 0 129 0 129 97 36 c53 20 100 40 104
44 4 4 14 7 22 7 8 0 28 6 45 14 43 19 60 25 70 22 5 -1 17 -26 27 -56z
m-1275 -158 c6 -4 32 -35 58 -69 27 -35 57 -68 69 -74 38 -20 3 -30 -98 -27
-114 3 -108 -4 -79 111 17 64 27 76 50 59z m400 -142 c0 -23 -4 -25 -59 -28
-65 -3 -98 12 -51 24 16 4 40 13 54 21 36 18 56 12 56 -17z m3 -679 c3 -143
-5 -174 -34 -132 -9 13 -59 74 -110 136 -52 63 -94 118 -94 125 0 7 36 10 118
8 l117 -3 3 -134z m742 128 c0 -6 -42 -61 -94 -124 -51 -62 -100 -123 -109
-135 -29 -41 -37 -14 -37 124 0 73 3 136 7 139 11 12 233 8 233 -4z m-1315
-394 c50 -61 108 -133 130 -160 22 -28 47 -59 56 -70 135 -163 174 -211 224
-274 33 -41 84 -104 113 -140 52 -65 53 -66 50 -126 l-3 -60 -487 -3 c-401 -2
-488 0 -488 11 0 7 7 36 15 63 27 86 42 137 60 204 10 36 23 83 30 105 7 22
20 67 29 100 9 33 21 74 25 90 12 39 48 165 68 235 14 51 38 129 48 158 6 16
17 5 130 -133z m1773 102 c6 -7 14 -32 18 -55 4 -23 11 -45 15 -48 5 -3 9 -14
9 -24 0 -11 6 -39 14 -62 14 -45 28 -91 72 -243 14 -49 32 -110 39 -135 7 -25
20 -72 30 -105 9 -33 23 -80 30 -105 39 -137 42 -152 31 -156 -6 -2 -222 -3
-481 -2 l-470 3 -3 60 c-2 51 1 65 22 90 13 17 70 86 126 155 56 69 125 154
153 189 29 35 71 87 94 115 145 176 247 303 257 319 13 20 29 22 44 4z m-1203
-1871 c0 -271 -4 -420 -10 -422 -5 -1 -84 88 -175 198 -91 110 -201 244 -245
297 -44 54 -98 119 -120 146 -22 27 -44 53 -50 59 -5 6 -28 34 -50 61 -22 28
-43 52 -47 53 -5 2 -8 10 -8 18 0 12 52 14 353 12 l352 -3 0 -419z m1188 418
c3 -3 -25 -43 -62 -87 -196 -236 -392 -472 -441 -532 -30 -37 -60 -73 -65 -79
-9 -9 -83 -102 -93 -116 -2 -2 -7 2 -12 10 -11 17 -14 793 -3 803 8 9 667 9
676 1z m520 -289 c10 -33 24 -82 32 -110 8 -27 29 -97 45 -155 17 -58 37 -127
45 -155 8 -27 24 -86 34 -130 11 -44 27 -105 36 -135 19 -65 45 -160 45 -164
0 -2 -17 -10 -37 -19 -198 -81 -245 -103 -288 -131 -27 -18 -69 -45 -93 -60
-66 -41 -168 -143 -233 -230 -32 -44 -60 -83 -61 -86 -2 -4 -164 -10 -361 -13
-309 -5 -359 -4 -364 8 -9 25 5 58 43 100 20 22 61 72 92 110 31 39 61 75 67
81 19 21 51 59 91 109 21 28 117 145 213 260 96 116 247 297 335 404 278 335
328 393 335 384 4 -4 15 -35 24 -68z m-2713 -150 c30 -37 60 -73 65 -79 9 -10
127 -153 166 -201 9 -11 43 -51 75 -90 80 -95 79 -95 185 -224 52 -62 175
-211 274 -330 234 -281 248 -299 240 -311 -4 -6 -52 -10 -115 -10 -106 0 -110
1 -135 27 -14 15 -25 31 -25 36 0 4 -5 13 -10 20 -43 51 -54 65 -69 87 -50 77
-286 313 -364 365 -31 21 -57 41 -57 45 0 4 -8 10 -17 14 -10 3 -49 26 -88 51
-72 47 -283 155 -302 155 -6 0 -24 7 -39 15 -16 8 -37 15 -46 15 -9 0 -19 4
-23 9 -3 5 -19 13 -36 16 -38 9 -39 1 26 225 7 25 20 72 30 105 9 33 23 83 31
110 8 28 19 68 25 90 5 22 17 45 25 52 17 12 25 4 184 -192z m2161 -1823 c32
-124 143 -297 258 -405 28 -26 51 -53 51 -61 0 -8 -20 -38 -44 -67 -25 -30
-90 -110 -146 -179 -56 -69 -113 -138 -127 -155 -13 -16 -52 -65 -86 -107 -60
-76 -87 -93 -113 -69 -5 5 -61 24 -124 44 -122 37 -137 41 -240 60 l-65 12 -3
498 -2 497 312 -2 312 -3 17 -63z"/>
<path d="M28351 20618 c0 -10 -6 -18 -11 -18 -6 0 -32 -24 -58 -52 -239 -267
-506 -528 -762 -747 -47 -40 -96 -82 -110 -95 -33 -29 -218 -178 -297 -239
-34 -26 -68 -53 -75 -60 -7 -7 -26 -22 -43 -32 -16 -11 -82 -58 -145 -105 -63
-47 -135 -100 -160 -116 -25 -17 -76 -51 -113 -77 -38 -26 -70 -47 -72 -47 -2
0 -59 -37 -127 -83 -146 -99 -291 -187 -307 -187 -6 0 -11 -4 -11 -8 0 -5 -19
-19 -42 -31 -64 -34 -102 -55 -108 -61 -3 -3 -21 -13 -40 -24 -19 -10 -52 -28
-74 -40 -165 -91 -435 -229 -601 -307 -33 -15 -104 -48 -157 -73 -53 -26 -101
-46 -107 -46 -5 0 -22 -6 -38 -14 -31 -16 -91 -43 -138 -62 -16 -6 -41 -17
-55 -22 -14 -6 -50 -21 -80 -33 -30 -12 -69 -28 -87 -35 -17 -8 -37 -14 -45
-14 -8 0 -18 -4 -23 -8 -6 -5 -41 -19 -80 -31 -38 -12 -84 -29 -102 -37 -17
-8 -38 -14 -46 -14 -9 0 -18 -4 -21 -9 -3 -5 -22 -12 -42 -16 -20 -3 -44 -10
-53 -15 -9 -5 -50 -19 -91 -30 -41 -12 -84 -25 -95 -30 -11 -5 -36 -12 -55
-16 -19 -3 -39 -10 -45 -14 -5 -4 -27 -11 -49 -14 -21 -4 -46 -11 -55 -16 -15
-8 -36 -14 -166 -46 -33 -8 -87 -21 -120 -29 -33 -9 -79 -20 -103 -25 -23 -5
-51 -14 -61 -20 -11 -5 -32 -10 -46 -10 -15 0 -54 -6 -88 -14 -34 -8 -96 -21
-137 -30 -41 -8 -109 -21 -150 -30 -41 -8 -95 -17 -120 -20 -25 -2 -70 -9
-100 -15 -114 -21 -198 -33 -303 -41 -59 -5 -112 -12 -117 -15 -5 -3 -67 -10
-137 -16 -71 -5 -175 -14 -233 -19 -142 -12 -949 -12 -1080 1 -58 5 -154 14
-215 19 -155 13 -287 28 -380 45 -93 17 -179 20 -170 5 3 -5 15 -10 27 -10 11
0 32 -6 46 -14 40 -20 146 -55 232 -76 34 -8 55 -14 130 -40 19 -7 53 -15 75
-19 22 -4 50 -13 62 -19 12 -7 32 -12 44 -12 12 0 45 -6 73 -14 78 -22 146
-38 196 -47 25 -4 63 -12 85 -18 41 -10 193 -37 255 -45 19 -2 64 -9 100 -15
182 -29 254 -37 570 -61 156 -12 776 -11 875 1 44 5 145 13 225 19 80 5 161
14 180 19 19 6 55 11 80 11 25 0 72 7 105 15 33 8 78 14 99 15 22 0 65 6 95
14 79 20 156 35 228 46 35 5 72 14 82 20 11 5 30 10 43 10 13 0 43 6 68 14 25
8 74 22 110 31 144 36 274 72 310 87 14 6 39 14 55 18 35 10 87 28 132 47 17
7 40 13 51 13 12 0 23 4 27 9 3 5 20 13 38 17 17 3 48 13 67 22 65 28 95 40
140 57 25 10 59 23 75 31 89 38 104 44 109 44 4 0 62 27 129 60 68 33 129 60
135 60 7 0 12 5 12 10 0 6 5 10 12 10 11 0 158 70 168 80 3 3 21 13 40 24 71
37 146 79 201 112 31 19 59 34 63 34 3 0 52 30 109 68 56 37 106 69 112 71 5
2 38 24 73 48 35 23 65 43 67 43 5 0 92 59 115 77 8 6 79 59 157 117 79 58
151 114 161 123 26 26 101 86 121 97 9 5 21 15 26 21 10 12 155 140 214 191
61 51 393 386 466 469 39 44 75 85 81 90 6 6 33 37 59 70 75 95 119 147 137
166 24 26 258 337 258 345 0 3 14 23 30 44 17 21 30 41 30 45 0 4 14 24 30 45
17 21 30 42 30 48 0 6 4 12 8 14 11 4 82 123 82 137 0 6 5 11 10 11 6 0 10 5
10 11 0 6 23 48 50 94 28 46 50 87 50 93 0 6 5 12 11 14 6 2 9 13 6 23 -4 17
-5 17 -6 3z"/>
<path d="M27671 19143 c-1 -6 -22 -35 -48 -64 -92 -101 -389 -396 -468 -465
-44 -38 -92 -80 -106 -94 -44 -42 -103 -91 -261 -215 -35 -27 -67 -54 -73 -61
-5 -6 -40 -32 -78 -57 -37 -26 -73 -51 -80 -57 -41 -35 -148 -110 -156 -110
-5 0 -11 -3 -13 -7 -4 -9 -65 -53 -73 -53 -3 0 -11 -5 -18 -10 -31 -28 -441
-280 -454 -280 -3 0 -38 -19 -77 -42 -39 -24 -100 -57 -136 -74 -36 -17 -123
-59 -195 -94 -71 -34 -145 -69 -162 -76 -32 -14 -73 -31 -143 -62 -19 -8 -51
-22 -70 -30 -19 -8 -47 -21 -62 -29 -14 -7 -35 -13 -45 -13 -10 0 -23 -4 -28
-9 -6 -5 -26 -14 -45 -19 -19 -6 -60 -20 -90 -32 -30 -12 -64 -24 -75 -27 -11
-3 -33 -11 -50 -18 -29 -12 -63 -23 -190 -60 -33 -10 -67 -21 -76 -26 -9 -4
-34 -11 -55 -15 -22 -3 -43 -10 -49 -14 -9 -7 -26 -12 -170 -45 -33 -8 -89
-22 -125 -31 -102 -25 -188 -43 -280 -60 -47 -8 -121 -21 -165 -29 -44 -8
-123 -20 -175 -25 -52 -6 -102 -13 -110 -16 -30 -12 -322 -35 -570 -44 -272
-11 -790 -4 -878 10 -29 5 -101 12 -160 15 -59 3 -125 10 -147 16 -22 5 -78
14 -125 19 -100 12 -234 33 -342 55 -43 8 -111 21 -150 29 -68 14 -117 25
-258 61 -30 7 -82 20 -115 28 -85 22 -137 37 -160 47 -11 5 -65 23 -120 40
-55 18 -116 38 -135 45 -86 30 -107 37 -135 45 -45 12 -159 53 -210 75 -16 7
-50 20 -75 30 -25 10 -60 24 -77 31 -18 8 -49 21 -68 29 -66 27 -110 47 -125
56 -8 5 -22 12 -30 15 -25 10 -142 66 -205 97 -245 124 -356 177 -372 177 -6
0 -24 7 -39 15 -16 8 -37 15 -46 15 -9 0 -20 5 -23 10 -3 6 -14 10 -23 10 -9
0 -29 6 -44 14 -15 8 -40 17 -57 21 -17 4 -33 11 -36 16 -4 5 -14 9 -23 9 -9
0 -29 6 -44 14 -14 8 -45 17 -67 21 -23 4 -43 10 -46 15 -3 4 -25 11 -50 14
-24 4 -47 11 -50 15 -2 5 -25 12 -50 15 -24 4 -47 11 -50 15 -2 5 -26 12 -52
16 -27 4 -52 10 -58 13 -5 4 -35 12 -65 19 -30 6 -84 19 -120 27 -131 33 -196
47 -259 57 -36 6 -73 15 -82 20 -10 5 -30 9 -46 9 -15 0 -59 6 -98 14 -97 20
-184 34 -290 46 -49 6 -109 15 -132 20 -23 6 -63 10 -90 10 -26 0 -97 6 -158
15 -261 35 -1127 38 -1310 4 -33 -6 -116 -15 -185 -19 -172 -12 -336 -29 -394
-42 -26 -6 -74 -14 -105 -18 -156 -22 -310 -52 -395 -76 -26 -8 -59 -14 -73
-14 -13 0 -32 -4 -42 -10 -10 -5 -43 -14 -72 -19 -30 -5 -79 -17 -109 -25 -30
-8 -75 -20 -100 -26 -25 -6 -52 -15 -60 -19 -9 -5 -31 -12 -50 -15 -19 -4 -46
-11 -60 -16 -14 -5 -59 -18 -100 -30 -41 -11 -82 -25 -91 -30 -9 -5 -33 -12
-53 -15 -20 -4 -39 -11 -42 -16 -3 -5 -12 -9 -21 -9 -8 0 -29 -6 -46 -14 -18
-7 -61 -24 -97 -36 -36 -12 -73 -26 -82 -31 -10 -5 -23 -9 -29 -9 -10 0 -26
-6 -119 -47 -39 -17 -86 -37 -140 -60 -19 -8 -48 -21 -63 -29 -16 -8 -33 -14
-38 -14 -10 0 -135 -56 -159 -71 -8 -5 -22 -12 -30 -15 -38 -16 -398 -198
-425 -215 -16 -10 -39 -23 -50 -29 -11 -5 -47 -26 -80 -45 -33 -19 -67 -38
-75 -42 -21 -10 -134 -78 -210 -128 -36 -23 -101 -65 -145 -93 -44 -29 -89
-58 -99 -64 -29 -19 -580 -430 -586 -437 -3 -3 -41 -38 -84 -76 -44 -39 -87
-77 -96 -85 -25 -23 -87 -78 -175 -155 -104 -92 -373 -365 -550 -560 -60 -66
-94 -105 -130 -150 -22 -28 -50 -61 -62 -75 -56 -65 -68 -79 -111 -137 -25
-35 -49 -63 -54 -63 -4 0 -8 -5 -8 -11 0 -11 -69 -102 -82 -107 -5 -2 -8 -8
-8 -14 0 -6 -29 -47 -63 -92 -81 -103 -246 -349 -323 -481 -16 -27 -34 -59
-41 -70 -7 -11 -17 -29 -23 -40 -6 -11 -19 -33 -29 -50 -21 -32 -42 -69 -115
-205 -42 -78 -65 -124 -176 -355 -49 -102 -100 -214 -100 -219 0 -3 -13 -33
-29 -68 -16 -35 -37 -85 -46 -113 -10 -27 -22 -54 -27 -59 -4 -6 -8 -17 -8
-25 0 -9 -6 -27 -13 -41 -7 -14 -23 -54 -36 -90 -13 -36 -27 -74 -31 -85 -5
-11 -18 -49 -30 -85 -11 -36 -24 -74 -29 -85 -11 -24 -32 -89 -56 -170 -9 -33
-23 -78 -30 -100 -18 -59 -41 -142 -60 -215 -10 -36 -23 -85 -30 -110 -7 -25
-20 -81 -29 -125 -10 -44 -24 -107 -31 -140 -7 -33 -21 -100 -30 -150 -8 -49
-22 -124 -30 -165 -8 -41 -21 -127 -30 -190 -9 -63 -22 -152 -30 -196 -8 -45
-15 -103 -15 -128 0 -26 -5 -57 -11 -68 -13 -24 -43 -775 -34 -828 4 -19 10
-989 13 -2155 l7 -2120 975 -3 c536 -1 985 0 997 3 l23 5 2 828 3 827 1249 3
c993 2 1251 0 1258 -10 4 -7 8 -383 8 -835 l0 -823 989 0 c544 0 996 3 1005 6
15 6 16 228 15 2428 0 1331 -5 2462 -9 2511 -5 50 -14 115 -20 145 -6 30 -19
91 -27 135 -9 44 -20 85 -24 90 -4 6 -10 31 -14 58 -4 26 -11 50 -16 53 -5 3
-9 15 -9 27 0 12 -7 35 -15 51 -8 15 -15 33 -15 38 0 8 -12 38 -50 123 -135
303 -289 526 -529 765 -86 85 -167 164 -181 175 -14 11 -47 38 -75 60 -27 21
-55 44 -60 49 -6 6 -22 18 -36 26 -15 8 -46 28 -70 45 -50 34 -75 50 -104 65
-11 6 -33 19 -50 30 -37 24 -273 140 -335 165 -25 9 -54 21 -65 26 -11 5 -49
18 -85 29 -36 12 -74 25 -85 30 -23 10 -86 26 -165 44 -30 7 -62 15 -70 19 -8
3 -49 11 -90 17 -41 6 -100 15 -130 20 -30 5 -109 14 -175 19 -151 13 -1370
13 -1525 1 -162 -14 -223 -21 -240 -28 -8 -3 -49 -11 -90 -18 -112 -19 -183
-34 -205 -44 -11 -5 -36 -12 -55 -16 -19 -3 -41 -10 -50 -14 -19 -10 -165 -59
-205 -69 -57 -15 -280 -124 -395 -194 -177 -107 -311 -207 -450 -336 -71 -66
-91 -80 -96 -66 -4 9 1 35 11 58 10 23 23 56 30 72 7 17 68 143 136 280 124
251 360 657 482 827 34 48 80 113 102 145 67 96 231 316 256 344 27 29 45 51
104 124 121 152 586 613 733 729 14 11 50 43 79 70 29 27 67 59 85 72 18 13
38 27 43 32 83 68 459 342 472 342 3 0 22 13 42 28 20 16 43 32 51 36 24 11
53 29 90 56 36 26 61 42 95 60 11 6 43 24 70 41 28 16 64 37 80 45 17 8 53 28
80 44 28 17 75 43 105 58 30 15 57 30 58 35 2 4 8 7 14 7 6 0 79 33 162 74
134 66 184 89 276 128 14 5 39 16 55 23 17 7 50 21 75 31 25 9 63 25 85 35 22
9 63 24 90 33 28 9 59 20 70 25 31 12 87 32 120 41 17 5 57 18 90 30 65 23
140 46 195 60 19 4 49 13 65 18 17 6 57 18 90 27 33 9 76 21 95 28 19 6 55 14
80 17 25 4 66 12 93 19 26 6 68 16 95 22 26 7 67 15 92 19 63 11 165 29 235
42 33 6 92 14 130 19 39 5 93 13 120 18 28 5 77 10 111 10 33 1 107 8 165 17
84 13 190 16 559 16 278 0 492 -5 550 -12 52 -6 142 -15 200 -19 58 -5 132
-13 165 -19 56 -10 128 -21 280 -42 33 -4 73 -13 88 -19 16 -6 42 -11 59 -11
27 0 84 -12 203 -41 22 -6 58 -14 80 -18 22 -4 56 -12 75 -18 42 -13 110 -31
165 -43 51 -11 132 -35 165 -48 14 -5 52 -18 85 -27 33 -10 75 -24 93 -31 18
-8 39 -14 46 -14 13 0 135 -46 203 -76 17 -8 36 -14 41 -14 6 0 23 -6 39 -14
46 -24 100 -46 112 -46 6 0 19 -4 29 -10 29 -16 110 -50 120 -50 5 0 58 -25
118 -55 59 -30 121 -57 138 -61 17 -3 36 -10 41 -14 6 -4 26 -11 45 -15 19 -4
41 -11 50 -16 8 -4 85 -31 170 -59 85 -27 163 -55 172 -60 10 -6 25 -10 34
-10 9 0 30 -6 47 -14 18 -8 52 -19 77 -26 76 -19 163 -40 208 -50 24 -5 48
-13 55 -17 6 -4 29 -10 52 -14 22 -3 60 -11 85 -17 25 -6 81 -18 125 -27 44
-9 98 -20 120 -26 22 -5 75 -14 117 -19 42 -6 88 -14 103 -20 14 -5 47 -10 73
-10 26 0 63 -5 82 -11 19 -6 78 -14 130 -19 52 -4 131 -13 175 -19 289 -38
1006 -55 1275 -30 58 5 170 14 250 19 80 5 161 14 180 19 19 6 53 11 75 11 22
0 65 7 95 15 30 8 73 15 95 15 22 0 65 7 95 15 30 8 73 15 95 15 22 0 65 7 95
15 30 8 74 15 97 15 23 0 54 5 70 11 15 6 51 15 78 19 63 11 140 28 182 41 18
6 54 14 80 19 27 5 71 16 98 24 28 9 70 21 95 27 25 6 54 15 65 20 11 5 38 13
60 18 56 14 125 35 158 49 16 7 34 12 42 12 7 0 26 7 41 15 16 8 38 15 49 15
12 0 25 4 30 8 6 5 42 19 80 31 39 12 79 26 90 31 89 39 115 50 123 50 9 0 60
22 94 41 10 5 23 9 28 9 6 0 32 9 58 21 26 11 61 26 77 34 37 16 144 65 245
112 41 20 84 39 95 44 11 5 28 13 38 19 25 15 41 23 162 85 61 31 133 70 160
86 28 16 64 36 80 44 17 9 44 24 60 35 17 11 39 24 50 30 11 6 34 19 50 30 17
11 39 24 50 29 11 5 57 34 103 65 46 31 87 56 92 56 4 0 10 3 12 8 5 10 66 52
77 52 5 0 11 4 13 8 2 4 21 19 43 32 22 13 45 28 50 32 6 5 69 51 140 103 72
52 135 98 140 102 6 5 42 33 80 63 39 30 75 59 81 65 6 5 42 35 79 65 38 30
105 87 148 125 44 39 102 88 128 110 149 126 687 687 802 838 23 30 69 87 102
127 54 66 113 143 147 194 7 10 18 24 23 30 6 6 22 29 38 52 15 22 35 49 45
60 28 31 140 202 147 224 3 11 11 20 16 20 5 0 9 5 9 12 0 6 7 19 16 29 9 10
14 24 11 31 -4 8 -6 9 -6 1z m-15599 -7800 c6 -7 23 -13 36 -13 13 0 36 -6 50
-14 15 -7 49 -24 75 -37 87 -43 95 -49 175 -127 68 -66 108 -121 162 -223 5
-9 12 -34 16 -55 3 -22 12 -45 18 -53 17 -21 22 -1257 6 -1277 -11 -12 -183
-14 -1255 -14 -1124 0 -1243 2 -1249 16 -9 25 -6 1118 3 1220 5 50 14 100 19
110 6 11 18 39 28 64 10 25 24 52 31 61 7 8 13 21 13 27 0 16 178 195 212 213
119 63 181 89 210 89 13 0 28 4 34 9 16 17 79 18 746 17 511 -1 660 -4 670
-13z"/>
<path d="M19938 17503 c7 -3 16 -2 19 1 4 3 -2 6 -13 5 -11 0 -14 -3 -6 -6z"/>
<path d="M14215 15125 c-334 -38 -551 -168 -609 -364 -21 -70 -20 -144 1 -207
68 -203 240 -278 768 -334 258 -27 350 -48 396 -91 37 -35 37 -60 -1 -98 -34
-33 -68 -45 -175 -62 -110 -18 -362 4 -480 41 -167 53 -248 86 -322 133 -24
15 -49 27 -57 27 -13 0 -176 -260 -176 -280 0 -16 59 -58 132 -93 333 -160
790 -201 1178 -108 25 6 54 16 65 21 11 5 45 20 75 33 158 71 248 170 285 313
17 68 17 73 0 145 -22 89 -66 159 -129 204 -70 50 -263 125 -321 125 -12 0
-35 4 -51 10 -28 9 -74 15 -364 45 -257 26 -330 52 -330 115 0 36 37 68 107
93 83 29 347 36 459 12 135 -29 177 -43 296 -99 42 -20 82 -34 90 -31 7 3 26
34 42 68 60 126 96 210 92 216 -5 8 -117 63 -171 84 -107 42 -207 64 -375 82
-159 17 -274 17 -425 0z"/>
<path d="M16765 15125 c-300 -34 -510 -141 -590 -302 -41 -81 -47 -207 -15
-294 56 -149 233 -240 550 -283 63 -8 183 -23 265 -32 217 -24 343 -59 359
-99 33 -87 -59 -140 -264 -151 -87 -5 -142 -3 -225 11 -142 22 -284 60 -360
95 -11 5 -40 18 -65 29 -25 10 -61 30 -80 43 -67 46 -64 47 -135 -73 -36 -61
-65 -114 -65 -119 0 -4 -7 -13 -15 -20 -28 -23 -18 -58 23 -84 203 -128 523
-206 843 -206 306 0 538 61 697 184 59 45 106 107 138 181 23 54 23 195 0 250
-52 122 -165 205 -346 253 -161 42 -179 45 -460 72 -240 23 -361 55 -375 100
-16 52 36 96 147 123 90 23 332 23 426 1 142 -32 206 -55 304 -105 32 -16 64
-26 72 -23 8 3 22 22 32 42 9 20 37 78 61 127 23 50 43 95 43 101 0 12 -54 54
-70 54 -6 0 -21 6 -33 14 -23 14 -179 66 -257 86 -66 16 -312 39 -410 38 -47
0 -134 -6 -195 -13z"/>
<path d="M15457 15084 c-4 -4 -7 -324 -7 -711 l0 -703 253 2 252 3 0 705 0
705 -246 3 c-135 1 -248 -1 -252 -4z"/>
<path d="M17997 15084 c-4 -4 -7 -324 -7 -711 l0 -703 253 2 252 3 0 705 0
705 -246 3 c-135 1 -248 -1 -252 -4z"/>
<path d="M19157 15083 c-4 -3 -7 -323 -7 -710 l0 -703 243 2 242 3 5 449 c3
287 9 450 15 452 6 2 25 -16 42 -40 18 -23 41 -52 50 -63 10 -12 43 -51 73
-88 51 -62 173 -211 257 -313 19 -23 49 -60 67 -82 17 -21 83 -102 146 -179
l115 -141 313 0 312 0 -2 708 -3 707 -240 0 -240 0 -5 -445 c-3 -310 -8 -445
-16 -445 -6 0 -41 36 -78 80 -37 44 -97 116 -134 160 -37 44 -85 102 -106 129
-39 49 -71 87 -91 110 -6 6 -28 33 -50 61 -36 44 -228 276 -276 333 -19 22
-20 22 -322 22 -167 0 -307 -3 -310 -7z"/>
<path d="M21213 15083 c-16 -6 -18 -753 -3 -853 20 -129 49 -202 120 -298 94
-127 257 -221 455 -262 132 -27 190 -32 365 -27 219 6 312 20 435 66 53 20
180 88 206 111 16 14 39 34 51 45 68 59 142 184 160 270 25 121 28 185 26 555
l-3 395 -255 0 -255 0 -5 -415 c-5 -411 -5 -416 -29 -468 -30 -67 -102 -132
-176 -160 -48 -19 -77 -22 -190 -22 -112 0 -142 3 -189 22 -75 28 -138 86
-173 156 l-28 57 -5 415 -5 415 -245 2 c-135 1 -251 -1 -257 -4z"/>
<path d="M23205 15078 c-3 -7 -4 -326 -3 -708 l3 -695 670 -3 c738 -3 773 -1
900 58 72 34 155 117 187 187 33 72 32 209 -2 278 -24 51 -121 155 -143 155
-7 0 -27 9 -46 21 l-34 21 44 25 c56 33 106 79 125 118 97 189 25 397 -169
489 -125 59 -132 59 -860 63 -540 3 -668 1 -672 -9z m1097 -279 c162 -34 174
-229 16 -276 -45 -13 -550 -19 -582 -7 -14 5 -16 28 -16 144 0 101 3 140 13
143 25 11 517 7 569 -4z m82 -564 c53 -27 78 -64 83 -122 6 -57 -21 -105 -77
-137 -33 -20 -50 -21 -350 -21 l-315 0 -3 140 c-1 76 0 145 3 152 4 11 62 13
312 11 285 -3 311 -4 347 -23z"/>
<path d="M25135 15078 c-3 -7 -4 -326 -3 -708 l3 -695 253 -3 252 -2 -2 707
-3 708 -248 3 c-193 2 -249 0 -252 -10z"/>
<path d="M18927 13263 c-5 -4 -77 -11 -160 -16 -208 -11 -323 -26 -522 -66
-214 -44 -288 -61 -307 -71 -10 -6 -24 -10 -31 -10 -15 0 -140 -36 -172 -50
-11 -5 -49 -19 -85 -31 -100 -34 -139 -48 -158 -58 -9 -5 -56 -25 -104 -45
-71 -30 -267 -127 -393 -196 -29 -16 -92 -53 -130 -78 -11 -6 -30 -16 -42 -22
-13 -5 -23 -14 -23 -20 0 -5 -4 -10 -9 -10 -17 0 -285 -191 -316 -225 -5 -6
-37 -31 -69 -56 -75 -56 -358 -338 -452 -450 -179 -214 -330 -436 -444 -654
-25 -49 -52 -99 -58 -110 -21 -36 -82 -174 -82 -185 0 -6 -4 -18 -10 -28 -17
-31 -67 -158 -75 -192 -3 -14 -10 -34 -15 -45 -11 -27 -36 -113 -45 -152 -3
-18 -11 -35 -16 -38 -5 -4 -9 -21 -9 -40 0 -19 -5 -46 -11 -62 -11 -26 -25
-95 -50 -248 -5 -33 -14 -109 -19 -170 -29 -327 -31 -387 -20 -528 16 -217 29
-346 40 -412 25 -155 36 -211 42 -220 3 -5 9 -32 13 -59 4 -27 14 -61 21 -75
8 -14 14 -35 14 -46 1 -20 29 -110 42 -130 3 -5 9 -26 13 -45 4 -19 13 -48 20
-65 7 -16 21 -50 30 -75 32 -81 92 -218 116 -263 5 -10 29 -55 53 -101 24 -46
68 -122 97 -170 30 -48 59 -95 64 -104 15 -25 49 -76 58 -87 4 -5 35 -48 69
-95 34 -47 75 -101 92 -121 17 -19 41 -48 54 -62 23 -28 110 -125 166 -187 28
-30 173 -167 288 -271 56 -51 66 -59 76 -59 5 0 17 -10 28 -21 21 -23 200
-159 210 -159 3 0 23 -12 43 -27 20 -16 45 -34 56 -40 68 -42 182 -110 195
-116 8 -4 42 -23 75 -42 60 -33 95 -51 210 -105 124 -59 195 -90 208 -90 6 0
21 -7 31 -15 11 -8 29 -15 41 -15 12 0 25 -4 30 -8 6 -5 64 -26 130 -47 66
-20 128 -41 137 -46 9 -5 36 -12 60 -15 24 -4 48 -10 53 -14 6 -5 33 -13 60
-18 50 -10 121 -26 185 -43 46 -13 151 -28 275 -40 55 -6 114 -14 130 -19 48
-15 524 -22 690 -11 232 16 378 31 400 41 11 4 46 11 78 14 59 6 73 9 242 52
55 14 120 30 145 35 25 6 54 14 65 18 11 5 54 18 95 30 41 13 82 26 90 30 9 5
30 12 48 15 17 4 34 12 37 17 4 5 13 9 22 9 15 0 65 19 116 46 16 8 34 14 40
14 18 0 286 131 402 195 33 19 69 39 80 45 11 6 34 19 50 30 17 11 39 24 50
30 11 5 55 34 98 65 42 30 80 55 85 55 4 0 22 14 41 30 18 17 37 30 40 30 3 0
19 12 35 26 15 15 49 43 75 62 148 113 497 458 569 563 9 13 19 26 22 29 21
17 220 296 220 307 0 3 17 31 38 62 21 31 49 76 62 101 13 25 40 77 61 115 41
77 77 149 90 180 11 27 48 115 59 140 36 81 50 120 50 136 0 10 4 20 9 23 5 3
12 22 16 42 3 20 10 44 15 53 5 9 13 34 18 56 6 22 18 65 27 95 9 30 21 80 26
110 5 30 14 62 18 71 5 8 12 51 16 95 4 43 11 84 15 89 8 10 10 30 29 250 12
139 12 408 1 545 -19 214 -22 235 -28 250 -3 8 -11 53 -18 100 -18 125 -34
203 -44 221 -5 9 -12 34 -16 55 -3 22 -10 44 -14 49 -5 6 -11 31 -15 58 -4 26
-11 50 -16 53 -5 3 -9 15 -9 27 0 12 -6 34 -14 49 -8 15 -17 40 -21 57 -4 17
-11 33 -16 36 -5 4 -9 14 -9 23 -1 9 -9 35 -20 57 -11 22 -19 48 -20 58 0 9
-4 17 -9 17 -5 0 -12 11 -15 24 -14 57 -138 298 -226 439 -28 45 -57 91 -63
102 -7 11 -59 82 -116 160 -116 155 -109 145 -153 199 -33 38 -48 56 -138 152
-71 77 -310 299 -366 341 -27 21 -63 50 -79 66 -17 15 -34 27 -40 27 -5 0 -24
14 -42 30 -18 17 -35 30 -38 30 -4 0 -32 19 -63 43 -31 24 -64 47 -72 51 -17
8 -35 19 -95 57 -22 14 -47 29 -55 32 -8 4 -31 17 -50 28 -234 142 -536 272
-860 369 -41 12 -84 26 -95 31 -11 4 -40 11 -65 15 -25 3 -49 10 -55 14 -5 4
-38 11 -73 15 -34 4 -65 11 -68 16 -3 5 -16 9 -30 9 -14 0 -62 7 -107 14 -230
41 -237 42 -452 57 -227 16 -390 21 -398 12z m348 -1902 c77 -6 149 -15 160
-20 11 -5 46 -13 77 -16 32 -4 60 -11 63 -16 4 -5 16 -9 28 -9 21 0 207 -60
245 -79 26 -13 145 -68 162 -75 8 -3 29 -15 45 -26 17 -11 44 -26 60 -34 17
-8 62 -37 100 -65 39 -28 88 -63 110 -77 54 -37 305 -291 305 -309 0 -8 4 -15
9 -15 7 0 74 -97 148 -215 28 -44 113 -229 113 -245 0 -5 4 -18 9 -28 25 -47
70 -220 77 -296 3 -34 10 -70 15 -81 12 -25 5 -373 -9 -475 -6 -41 -16 -93
-23 -115 -40 -138 -51 -172 -60 -187 -5 -10 -9 -24 -9 -31 0 -11 -97 -209
-141 -287 -20 -36 -80 -122 -101 -144 -10 -11 -28 -35 -41 -53 -25 -38 -220
-231 -287 -284 -58 -47 -179 -129 -189 -129 -5 0 -13 -6 -19 -13 -17 -21 -323
-167 -350 -167 -5 0 -23 -7 -38 -15 -16 -8 -40 -15 -55 -15 -14 0 -29 -4 -35
-9 -5 -5 -31 -14 -59 -20 -27 -5 -68 -14 -90 -20 -136 -33 -231 -43 -439 -43
-209 0 -304 9 -441 43 -22 6 -62 15 -90 20 -27 6 -54 15 -59 20 -6 5 -19 9
-30 9 -12 0 -34 7 -50 15 -15 8 -33 15 -38 15 -6 0 -26 7 -46 16 -21 8 -50 21
-67 28 -81 35 -199 98 -224 120 -9 7 -26 17 -38 20 -13 4 -23 12 -23 17 0 5
-4 9 -10 9 -20 0 -137 93 -250 198 -123 114 -227 234 -281 322 -18 30 -43 69
-55 85 -24 33 -124 237 -124 253 0 5 -7 23 -15 38 -8 16 -15 39 -15 51 0 12
-4 24 -9 27 -4 3 -11 25 -15 48 -4 23 -11 47 -15 53 -46 56 -46 715 -1 797 5
9 13 35 16 58 4 22 11 43 15 46 5 3 9 14 9 26 0 23 16 62 96 233 20 44 40 82
43 85 3 3 17 26 31 53 13 26 28 47 32 47 5 0 8 4 8 10 0 23 133 185 240 291
108 107 257 229 280 229 5 0 10 4 10 8 0 5 10 14 23 21 12 6 36 20 52 31 32
20 219 114 270 135 17 7 47 20 68 29 21 9 46 16 57 16 10 0 21 4 24 9 4 5 25
12 49 16 23 4 47 11 52 15 6 5 37 11 70 15 33 4 65 11 71 16 6 5 67 12 135 15
68 4 133 11 144 15 21 9 94 7 320 -10z"/>
<path d="M23677 13153 c-4 -3 -7 -1623 -7 -3599 l0 -3594 23 -5 c12 -3 461 -4
997 -3 l975 3 0 3600 0 3600 -991 3 c-545 1 -994 -1 -997 -5z"/>
</g>
</svg>
